<svg viewBox="0 -50 512.00002 512" xmlns="http://www.w3.org/2000/svg"><path d="m496.921875 409.734375h-481.84375c-8.328125 0-15.078125 6.75-15.078125 15.078125s6.75 15.082031 15.078125 15.082031h481.84375c8.328125 0 15.078125-6.753906 15.078125-15.082031s-6.75-15.078125-15.078125-15.078125zm0 0"/><path d="m496.921875 240.078125h-9.363281v-36.863281c0-8.328125-6.75-15.082032-15.078125-15.082032h-40.546875c-8.328125 0-15.082032 6.753907-15.082032 15.082032v36.863281h-46.914062v-50.472656c0-8.328125-6.753906-15.078125-15.082031-15.078125h-161.210938v-8.9375c0-8.328125-6.75-15.078125-15.078125-15.078125h-163.488281c-8.328125 0-15.078125 6.75-15.078125 15.078125v167.5c0 8.328125 6.75 15.082031 15.078125 15.082031h4.695313c-1.308594 4.121094-2.023438 8.507813-2.023438 13.058594 0 23.832031 19.390625 43.222656 43.222656 43.222656 10.742188 0 20.570313-3.949219 28.140625-10.457031 7.566407 6.507812 17.398438 10.457031 28.140625 10.457031 10.742188 0 20.570313-3.949219 28.140625-10.457031 7.566407 6.507812 17.398438 10.457031 28.136719 10.457031 10.742188 0 20.574219-3.949219 28.144531-10.457031 7.566407 6.507812 17.398438 10.457031 28.140625 10.457031 10.738282 0 20.570313-3.949219 28.136719-10.457031 7.570313 6.507812 17.402344 10.457031 28.140625 10.457031 10.742188 0 20.574219-3.949219 28.140625-10.457031 7.570313 6.507812 17.398437 10.457031 28.140625 10.457031s20.574219-3.949219 28.140625-10.457031c7.570313 6.507812 17.398437 10.457031 28.140625 10.457031s20.574219-3.949219 28.140625-10.457031c7.570313 6.507812 17.398437 10.457031 28.140625 10.457031 23.832031 0 43.21875-19.390625 43.21875-43.222656 0-4.550781-.710938-8.9375-2.019531-13.058594h.78125c8.328125 0 15.078125-6.75 15.078125-15.078125v-77.9375c.003906-8.328125-6.746094-15.078125-15.074219-15.078125zm-126.984375 77.933594v-47.773438h111.902344v47.773438zm-339.777344 0v-37.335938h309.617188v37.335938zm416.851563-99.71875h10.390625v21.785156h-10.390625zm-107.234375 32.222656h-55.652344v-45.828125h55.652344zm-85.8125-45.828125v45.824219h-60.320313v-45.824219zm-90.480469-15.082031v60.90625h-60.316406v-69.839844h60.316406zm-133.324219-8.933594h42.847656v69.84375h-42.847656zm30.8125 193.621094c-7.203125 0-13.0625-5.859375-13.0625-13.0625s5.859375-13.058594 13.0625-13.058594c7.199219 0 13.058594 5.859375 13.058594 13.058594 0 7.203125-5.859375 13.0625-13.058594 13.0625zm56.28125 0c-7.203125 0-13.0625-5.859375-13.0625-13.0625s5.859375-13.058594 13.0625-13.058594c7.199219 0 13.058594 5.859375 13.058594 13.058594 0 7.203125-5.859375 13.0625-13.058594 13.0625zm56.28125 0c-7.203125 0-13.0625-5.859375-13.0625-13.0625s5.859375-13.058594 13.0625-13.058594c7.199219 0 13.058594 5.859375 13.058594 13.058594 0 7.203125-5.859375 13.0625-13.058594 13.0625zm56.28125 0c-7.203125 0-13.0625-5.859375-13.0625-13.0625s5.859375-13.058594 13.0625-13.058594c7.199219 0 13.058594 5.859375 13.058594 13.058594 0 7.203125-5.859375 13.0625-13.058594 13.0625zm56.28125 0c-7.203125 0-13.0625-5.859375-13.0625-13.0625s5.859375-13.058594 13.0625-13.058594c7.199219 0 13.058594 5.859375 13.058594 13.058594 0 7.203125-5.859375 13.0625-13.058594 13.0625zm56.28125 0c-7.203125 0-13.0625-5.859375-13.0625-13.0625s5.859375-13.058594 13.0625-13.058594c7.199219 0 13.058594 5.859375 13.058594 13.058594 0 7.203125-5.859375 13.0625-13.058594 13.0625zm56.28125 0c-7.203125 0-13.0625-5.859375-13.0625-13.0625 0-7.183594 5.835938-13.03125 13.011719-13.058594h.097656c7.179688.027344 13.011719 5.871094 13.011719 13.058594 0 7.203125-5.859375 13.0625-13.058594 13.0625zm69.339844-13.0625c0 7.203125-5.859375 13.0625-13.058594 13.0625-7.203125 0-13.0625-5.859375-13.0625-13.0625 0-7.183594 5.835938-13.03125 13.011719-13.058594h.097656c7.179688.027344 13.011719 5.875 13.011719 13.058594zm0 0"/><path d="m374.054688 138.207031c6.394531 0 12.699218-1.113281 18.648437-3.265625 2.816406 1.851563 5.789063 3.429688 8.890625 4.722656 3.3125 20.585938 21.203125 36.363282 42.710938 36.363282 23.851562 0 43.253906-19.40625 43.253906-43.257813 0-11.253906-4.347656-21.839843-11.851563-29.753906 1.195313-4.539063 1.804688-9.238281 1.804688-13.953125 0-30.21875-24.585938-54.808594-54.804688-54.808594-6.394531 0-12.703125 1.113282-18.648437 3.265625-8.847656-5.808593-19.195313-8.929687-30.007813-8.929687-30.21875 0-54.804687 24.589844-54.804687 54.808594 0 30.222656 24.585937 54.808593 54.808594 54.808593zm0-79.457031c6.527343 0 12.683593 2.535156 17.332031 7.132812 4.933593 4.878907 12.558593 5.761719 18.480469 2.140626 3.851562-2.359376 8.292968-3.605469 12.839843-3.605469 13.589844 0 24.644531 11.054687 24.644531 24.644531 0 4.15625-.992187 8.097656-2.949218 11.710938-1.90625 3.523437-2.335938 7.65625-1.191406 11.492187 1.140624 3.835937 3.765624 7.0625 7.289062 8.964844 4.253906 2.292969 6.898438 6.71875 6.898438 11.539062 0 7.222657-5.875 13.101563-13.097657 13.101563-7.21875 0-13.097656-5.878906-13.097656-13.101563 0-.6875.058594-1.390625.167969-2.085937.632812-3.957032-.335938-8-2.6875-11.242188-2.355469-3.242187-5.902344-5.414062-9.859375-6.035156-5.097657-.800781-9.75-3.160156-13.453125-6.824219-2.902344-2.871093-6.738282-4.359375-10.609375-4.359375-2.707031 0-5.433594.730469-7.867188 2.21875-3.855469 2.359375-8.292969 3.605469-12.84375 3.605469-13.589843 0-24.644531-11.054687-24.644531-24.648437 0-13.589844 11.058594-24.648438 24.648438-24.648438zm0 0"/></svg>