<svg height="511pt" viewBox="0 -39 511.99977 511" width="511pt" xmlns="http://www.w3.org/2000/svg"><g fill="#003a7f"><path d="m218.703125 222.761719c-9.308594-15.636719-21.175781-27.488281-34.304687-35.53125-51.957032 33.707031-89.523438 130.324219-89.523438 236.082031h161.105469s12.097656-117.605469-37.277344-200.550781zm0 0"/><path d="m368.765625 379.082031c0 13.847657-11.226563 25.074219-25.078125 25.074219-13.847656 0-25.074219-11.226562-25.074219-25.074219zm0 0"/><path d="m418.917969 379.082031c0 13.847657-11.226563 25.074219-25.078125 25.074219-13.847656 0-25.074219-11.226562-25.074219-25.074219zm0 0"/><path d="m76.175781 379.082031c0 13.847657-11.226562 25.074219-25.078125 25.074219-13.847656 0-25.074218-11.226562-25.074218-25.074219zm0 0"/><path d="m126.328125 379.082031c0 13.847657-11.226563 25.074219-25.078125 25.074219-13.847656 0-25.074219-11.226562-25.074219-25.074219zm0 0"/></g><path d="m13.148438 379.082031h449.160156c30.703125 0 49.453125-33.738281 33.246094-59.8125-36.65625-58.96875-101.164063-94.824219-170.597657-94.824219h-261.082031s-44.371094 61.820313-50.726562 154.636719zm0 0" fill="#fff"/><path d="m407.597656 258.054688c-15.417968 0-28.035156 12.617187-28.035156 28.035156v.347656c0 15.421875 12.617188 28.035156 28.035156 28.035156h79.671875l-51.078125-56.417968zm0 0" fill="#c2edff"/><path d="m287.199219 286.441406v-.347656c0-15.421875-12.617188-28.039062-28.035157-28.039062h-28.214843c-15.417969 0-28.035157 12.617187-28.035157 28.039062v.347656c0 15.417969 12.617188 28.035156 28.035157 28.035156h28.214843c15.417969 0 28.035157-12.617187 28.035157-28.035156zm0 0" fill="#c2edff"/><path d="m112.539062 286.441406v-.347656c0-15.421875-12.617187-28.039062-28.035156-28.039062h-4.226562l-21.8125 56.421874h26.039062c15.417969 0 28.035156-12.617187 28.035156-28.035156zm0 0" fill="#c2edff"/><path d="m394.011719 358.53125h.136719c5.769531 0 10.449218-4.675781 10.449218-10.449219 0-5.769531-4.679687-10.445312-10.449218-10.445312h-.136719c-5.769531 0-10.449219 4.675781-10.449219 10.445312 0 5.773438 4.679688 10.449219 10.449219 10.449219zm0 0"/><path d="m184.28125 324.921875h74.882812c21.21875 0 38.484376-17.261719 38.484376-38.480469v-.347656c0-21.222656-17.265626-38.484375-38.484376-38.484375h-74.882812c-21.21875 0-38.484375 17.261719-38.484375 38.484375v.347656c0 21.21875 17.265625 38.480469 38.484375 38.480469zm-17.585938-38.832031c0-9.695313 7.890626-17.585938 17.585938-17.585938h74.882812c9.695313 0 17.585938 7.890625 17.585938 17.585938v.347656c0 9.699219-7.890625 17.589844-17.585938 17.589844h-74.882812c-9.695312 0-17.585938-7.890625-17.585938-17.589844zm0 0"/><path d="m501.515625 412.863281h-.136719c-5.769531 0-10.449218 4.675781-10.449218 10.449219 0 5.769531 4.679687 10.445312 10.449218 10.445312h.136719c5.769531 0 10.449219-4.675781 10.449219-10.445312 0-5.773438-4.679688-10.449219-10.449219-10.449219zm0 0"/><path d="m467.578125 412.863281h-62.765625c10.949219-3.566406 19.582031-12.308593 22.984375-23.332031h34.511719c18.265625 0 34.472656-9.535156 43.347656-25.5s8.414062-34.761719-1.230469-50.277344c-15.84375-25.484375-37.054687-47.34375-61.921875-64.007812-.363281-.277344-.746094-.535156-1.148437-.761719-4.46875-2.957031-9.039063-5.761719-13.730469-8.371094-31.328125-17.410156-66.828125-26.613281-102.667969-26.613281h-99.726562c-24.316407-32.652344-53.550781-49.890625-84.71875-49.890625-38.386719 0-74.222657 28.6875-100.910157 80.777344-24.429687 47.679687-38.605468 111.351562-39.074218 175.160156-.339844 1.027344-.527344 2.121094-.527344 3.265625 0 5.769531 4.679688 10.449219 10.449219 10.449219h457.128906c5.769531 0 10.449219-4.679688 10.449219-10.449219s-4.679688-10.449219-10.449219-10.449219zm-445.523437-13.363281c4.382812 6.210938 10.699218 10.960938 18.074218 13.363281h-18.59375c.105469-4.480469.277344-8.9375.519532-13.363281zm18.828124-9.96875h20.433594c-2.636718 2.578125-6.242187 4.175781-10.214844 4.175781-3.976562 0-7.582031-1.597656-10.21875-4.175781zm35.292969 14.6875c3.910157 3.902344 8.730469 6.894531 14.105469 8.644531h-28.210938c5.375-1.75 10.191407-4.742187 14.105469-8.644531zm14.859375-14.6875h20.433594c-2.640625 2.578125-6.242188 4.175781-10.21875 4.175781-3.972656 0-7.578125-1.597656-10.214844-4.175781zm44.167969 0h174.53125c3.398437 11.023438 12.035156 19.765625 22.984375 23.332031h-220.496094c10.949219-3.566406 19.582032-12.308593 22.980469-23.332031zm198.269531 0h20.433594c-2.636719 2.578125-6.242188 4.175781-10.214844 4.175781s-7.582031-1.597656-10.21875-4.175781zm35.292969 14.6875c3.914063 3.902344 8.730469 6.894531 14.105469 8.644531h-28.210938c5.375-1.75 10.191406-4.742187 14.105469-8.644531zm25.074219-10.511719c-3.972656 0-7.578125-1.597656-10.214844-4.175781h20.433594c-2.636719 2.578125-6.242188 4.175781-10.21875 4.175781zm77.945312-89.679687h-114.078125c-9.699219 0-17.585937-7.890625-17.585937-17.585938v-.347656c0-9.699219 7.886718-17.589844 17.585937-17.589844h75.535157c14.292968 9.894532 27.269531 21.808594 38.542968 35.523438zm-78.085937-56.421875h-35.992188c-21.21875 0-38.484375 17.265625-38.484375 38.484375v.347656c0 21.222656 17.265625 38.484375 38.484375 38.484375h129.050781c5.5 8.953125 5.742188 19.761719.632813 28.953125-5.136719 9.242188-14.511719 14.757812-25.082031 14.757812h-437.441406c.433593-3.390624.902343-6.761718 1.410156-10.101562h333.933594c5.769531 0 10.445312-4.675781 10.445312-10.449219 0-5.769531-4.675781-10.445312-10.445312-10.445312h-330.207032c.882813-4.296875 1.835938-8.53125 2.84375-12.714844h51.652344c21.222656 0 38.484375-17.261719 38.484375-38.484375v-.347656c0-21.21875-17.261719-38.484375-38.484375-38.484375h-22.625c2.457031-4.433594 4.996094-8.671875 7.617188-12.710938h255.46875c23.988281 0 47.207031 4.425781 68.738281 12.710938zm-342.132813 20.898437h32.933594c9.699219 0 17.589844 7.890625 17.589844 17.585938v.347656c0 9.699219-7.890625 17.589844-17.589844 17.589844h-45.984375c3.820313-12.574219 8.195313-24.46875 13.050781-35.523438zm88.945313-83.5c23.90625 0 43.328125 13.671875 57.589843 28.996094h-112.679687c16.6875-18.386719 35.515625-28.996094 55.089844-28.996094zm0 0"/><path d="m442.960938 93.308594c-1.671876 0-3.339844.09375-5 .261718-3.605469-9.484374-9.566407-17.640624-17.085938-23.878906-7.519531 6.238282-13.480469 14.394532-17.085938 23.878906-1.660156-.167968-3.328124-.261718-5.003906-.261718-26.769531 0-48.546875 21.914062-48.546875 48.851562h141.273438c0-26.9375-21.777344-48.851562-48.550781-48.851562zm0 0" fill="#27b5f7"/><path d="m429.140625 78.445312c2.382813 2.957032 4.59375 6.320313 6.535156 10.128907 3.183594 1.011719 7.003907 2.503906 11.050781 4.683593 20.179688 1.394532 33.019532 17.074219 33.019532 17.074219s20.027344-15.472656 21.773437-44.007812c.519531-8.449219-1.15625-16.460938-4.492187-23.632813-4.917969-1.382812-10.078125-2.140625-15.359375-2.140625-24.46875 0-45.207031 15.882813-52.527344 37.894531zm0 0" fill="#ffae18"/><path d="m511.96875 66.324219c0-36.296875-29.527344-65.824219-65.824219-65.824219-28.992187 0-54.003906 18.675781-62.625 45.550781-25.113281.289063-48.128906 14.746094-59.546875 36.835938-28.25.78125-51.601562 21.621093-56.433594 48.824219h-50.914062c-5.769531 0-10.445312 4.679687-10.445312 10.449218 0 5.769532 4.675781 10.449219 10.445312 10.449219h60.445312c5.769532 0 10.449219-4.679687 10.449219-10.449219 0-21.175781 17.089844-38.402344 38.101563-38.402344 1.253906 0 2.585937.070313 3.953125.207032 4.695312.476562 9.132812-2.261719 10.8125-6.679688 6.90625-18.15625 24.550781-30.351562 43.90625-30.351562s37 12.195312 43.902343 30.351562c1.679688 4.417969 6.113282 7.148438 10.816407 6.679688 1.363281-.136719 2.691406-.207032 3.949219-.207032 11.578124 0 21.960937 5.234376 28.957031 13.476563.03125.046875.054687.078125.058593.085937.015626.015626.035157.03125.050782.046876 3.472656 4.128906 6.101562 9 7.601562 14.34375h-124.257812c-5.769532 0-10.449219 4.679687-10.449219 10.449218 0 5.769532 4.679687 10.449219 10.449219 10.449219h136.140625c5.769531 0 10.449219-4.679687 10.449219-10.449219 0-11.066406-3.03125-21.429687-8.304688-30.304687 11.726562-12.175781 18.3125-28.289063 18.3125-45.53125zm-65.824219-44.929688c24.773438 0 44.925781 20.15625 44.925781 44.929688 0 10.101562-4.019531 22.214843-10.160156 30.476562-9.875-8.359375-22.5-13.53125-36.300781-13.914062-8.363281-16.175781-22.945313-28.257813-40.015625-33.683594 6.773438-16.5625 22.960938-27.808594 41.550781-27.808594zm0 0"/><path d="m323.503906 152.609375h-.164062c-5.769532 0-10.449219-4.679687-10.449219-10.449219 0-5.769531 4.679687-10.449218 10.449219-10.449218h.164062c5.769532 0 10.449219 4.679687 10.449219 10.449218 0 5.769532-4.679687 10.449219-10.449219 10.449219zm0 0"/><path d="m183.355469 152.609375h-.164063c-5.769531 0-10.449218-4.679687-10.449218-10.449219 0-5.769531 4.679687-10.449218 10.449218-10.449218h.164063c5.769531 0 10.449219 4.679687 10.449219 10.449218 0 5.769532-4.679688 10.449219-10.449219 10.449219zm0 0"/><path d="m195.128906 115.089844h-60.445312c-5.769532 0-10.445313-4.679688-10.445313-10.449219s4.675781-10.449219 10.445313-10.449219h60.445312c5.769532 0 10.449219 4.679688 10.449219 10.449219s-4.679687 10.449219-10.449219 10.449219zm0 0"/><path d="m101.414062 115.089844h-.164062c-5.769531 0-10.449219-4.679688-10.449219-10.449219s4.679688-10.449219 10.449219-10.449219h.164062c5.769532 0 10.449219 4.679688 10.449219 10.449219s-4.679687 10.449219-10.449219 10.449219zm0 0"/></svg>